<svg width="152" height="152" viewBox="0 0 152 152" fill="none" xmlns="http://www.w3.org/2000/svg">
<rect width="152" height="152" fill="black"/>
<path d="M9 40.5978V135H22.5519V66.6414H23.4277L51.269 134.862H62.5162L90.3575 66.6875H91.2333V135H104.785V40.5978H87.4996L57.4457 113.981H56.3394L26.2856 40.5978H9Z" fill="white"/>
<path d="M119.853 48.4674H123.664V36.1755H130.547C130.824 36.1755 131.085 36.1755 131.346 36.1601L137.984 48.4674H142.409L135.295 35.4687C139.305 34.1012 141.18 30.8285 141.18 26.6492C141.18 21.0871 137.861 17 130.486 17H119.853V48.4674ZM123.664 32.7337V20.3803H130.363C135.464 20.3803 137.431 22.8694 137.431 26.6492C137.431 30.429 135.464 32.7337 130.424 32.7337H123.664Z" fill="white"/>
</svg>
